<svg width="149" height="124" viewBox="0 0 149 124" fill="none" xmlns="http://www.w3.org/2000/svg">
<path d="M104.529 11.4495L42.8511 1.04686C36.8638 0.0383696 30.7542 1.92204 26.3646 6.13083L6.4489 25.2264C0.780162 30.662 -1.03788 39.0052 1.85327 46.3196L27.3636 110.868C30.8168 119.605 40.0331 124.581 49.2003 122.655L116.5 108.514C124.516 106.83 130.592 100.24 131.644 92.0879L135.793 59.9728C136.331 55.7979 135.497 51.5601 133.416 47.9048L118.051 20.9171C115.187 15.8853 110.223 12.4097 104.529 11.4495Z" fill="#20BEFF"/>
<path fill-rule="evenodd" clip-rule="evenodd" d="M24.7197 16.0496L139.866 19.5899V106.648L77.6825 108.473L30.6271 112.812L24.7197 16.0496Z" fill="white"/>
<path d="M32.4464 109.818C32.7522 109.818 30.9245 109.83 31.1368 109.818C32.7079 109.672 34.279 109.514 35.8501 109.368C37.2343 109.234 38.6186 109.088 40.0114 108.978C44.6652 108.577 49.3191 108.188 53.9729 107.798C58.0748 107.445 62.1681 107.092 66.27 106.74C71.3824 106.302 114.307 105.851 119.419 105.413C124.506 104.975 129.593 104.525 134.672 104.087C135.691 104.002 136.71 103.917 137.72 103.819C138.052 103.783 138.391 103.807 138.723 103.576C138.748 103.381 138.782 103.211 138.791 103.04C139.19 75.7963 139.597 48.5399 139.988 21.2957C139.988 21.174 139.937 21.0524 139.903 20.8577C139.665 20.8212 139.427 20.7725 139.19 20.7603C137.185 20.6873 135.173 20.6265 133.169 20.5535C126.782 20.3466 120.387 20.1641 114.001 19.9451C108.566 19.7504 65.3358 19.4705 59.9006 19.3002C54.1258 19.1176 48.3509 19.0203 42.5761 18.8743C39.4848 18.7891 36.4021 18.6796 33.3108 18.5823C32.3512 18.5579 31.4 18.5336 30.4404 18.4971C30.1601 18.4849 29.8799 18.4727 29.6166 18.3754C29.0816 18.205 28.7674 17.5723 28.8014 16.8301C28.8268 16.1365 29.158 15.5768 29.6591 15.4551C29.9308 15.3942 30.2111 15.3942 30.4913 15.4064C34.9074 15.5524 39.3235 15.6863 43.731 15.8445C47.0686 15.9661 50.3976 16.1487 53.7351 16.246C63.7052 16.5502 111.479 16.8057 121.457 17.1099C127.725 17.3046 136.032 17.548 142.3 17.767C142.58 17.7792 142.86 17.7792 143.132 17.8278C143.726 17.9373 144.083 18.4484 144.151 19.288C144.177 19.6409 144.177 19.9937 144.168 20.3466C144.058 28.706 143.939 37.0655 143.82 45.4249C143.726 52.02 143.642 58.6029 143.548 65.1979C143.395 75.5894 143.234 85.9931 143.081 96.3846C143.039 98.952 143.013 101.519 142.979 104.087C142.971 104.488 142.962 104.89 142.92 105.279C142.826 105.997 142.521 106.46 142.019 106.63C141.807 106.703 141.595 106.727 141.383 106.752C137.867 107.044 132.311 107.324 128.803 107.628C124.277 108.017 119.742 108.431 115.216 108.832C112.685 109.051 72.359 109.246 69.8283 109.465C66.2869 109.769 62.7371 110.098 59.1958 110.402C56.733 110.621 54.2617 110.828 51.7989 111.035C49.1492 111.266 46.4996 111.509 43.8499 111.741C40.4275 112.033 37.005 112.3 33.5826 112.568C32.5975 112.653 31.6124 112.738 30.6272 112.811C30.2536 112.836 29.8884 112.884 29.5147 112.86C28.9118 112.824 25.1381 112.373 24.9937 111.546C24.9597 111.339 24.9428 111.108 24.9343 110.889C24.8069 107.981 24.688 105.06 24.5606 102.14C24.3313 96.4819 24.0935 90.836 23.8642 85.1778C23.7199 81.5153 23.5755 77.8405 23.4311 74.1779C23.2698 70.2963 23.1084 66.4026 22.947 62.521C22.8027 59.0288 22.6668 55.5487 22.5224 52.0565C22.3526 47.8585 22.1827 43.6605 22.0129 39.4747C21.86 35.6783 21.6987 31.8819 21.5713 28.0733C21.4694 25.153 21.3929 22.2448 21.325 19.3245C21.308 18.5336 21.3335 17.7305 21.3929 16.9396C21.4609 15.9661 22.0044 15.4916 22.6583 15.7349C22.998 15.8688 26.7122 16.3433 26.6188 16.8057C26.398 17.8887 26.6613 18.9108 26.7037 19.9572C26.7632 21.5026 26.9075 23.0357 26.9755 24.5811C27.1963 29.9228 27.4001 35.2646 27.6124 40.6185C27.8247 45.8265 28.054 51.0344 28.2663 56.2544C28.4192 59.9657 28.5551 63.6769 28.7079 67.3882C28.8608 71.2333 29.0307 75.0662 29.1835 78.9113C29.3364 82.5739 29.4723 86.2486 29.6251 89.9112C29.778 93.7928 29.9478 97.6865 30.1007 101.568C30.1941 103.819 30.2705 106.07 30.364 108.321C30.347 108.784 32.4125 109.21 32.4464 109.818Z" fill="#202124"/>
<path d="M90.7447 27.2926C90.5206 27.3439 90.4451 27.3703 90.3721 27.3688C88.6318 27.4222 86.8972 27.5306 85.1461 27.4281C83.9691 27.3576 82.7887 27.3615 81.6156 27.3276C80.436 27.2852 79.26 27.2239 78.0813 27.1906C77.4296 27.1667 76.7799 27.161 76.135 27.2011C75.8342 27.2142 75.5468 27.3553 75.2537 27.4416C75.0749 27.4974 74.9317 27.2536 74.9674 26.954C75.0021 26.6453 75.1184 26.4204 75.2868 26.3195C75.5759 26.1412 75.877 25.9709 76.1857 25.8737C77.3849 25.5166 78.6148 25.452 79.8438 25.3783C81.7242 25.2731 83.6109 25.3337 85.5054 25.5228C86.8516 25.6587 88.1936 25.9152 89.5312 26.4495C89.8123 26.5678 90.0907 26.7142 90.3701 26.8698C90.4598 26.925 90.5351 27.0558 90.7447 27.2926Z" fill="#202124"/>
<path d="M93.5948 58.0714C93.3707 58.1227 93.2952 58.1491 93.2222 58.1476C91.4819 58.2011 89.7473 58.3094 87.9962 58.2069C86.8192 58.1364 85.6388 58.1403 84.4657 58.1064C83.2861 58.064 82.1101 58.0027 80.9314 57.9695C80.2797 57.9455 79.63 57.9398 78.9851 57.9799C78.6843 57.993 78.3969 58.1341 78.1038 58.2204C77.925 58.2762 77.7818 58.0324 77.8175 57.7328C77.8522 57.4241 77.9685 57.1992 78.1369 57.0983C78.426 56.92 78.7271 56.7497 79.0358 56.6525C80.235 56.2954 81.4649 56.2308 82.6939 56.1571C84.5743 56.0519 86.461 56.1125 88.3555 56.3016C89.7017 56.4375 91.0437 56.694 92.3813 57.2283C92.6624 57.3466 92.9408 57.493 93.2202 57.6486C93.3099 57.7038 93.3852 57.8346 93.5948 58.0714Z" fill="#202124"/>
<path d="M93.5948 89.9904C93.3707 90.0417 93.2952 90.0681 93.2222 90.0665C91.4819 90.12 89.7473 90.2284 87.9962 90.1258C86.8192 90.0554 85.6388 90.0593 84.4657 90.0254C83.2861 89.983 82.1101 89.9217 80.9314 89.8884C80.2797 89.8644 79.63 89.8588 78.9851 89.8988C78.6843 89.912 78.3969 90.0531 78.1038 90.1394C77.925 90.1952 77.7818 89.9513 77.8175 89.6518C77.8522 89.343 77.9685 89.1182 78.1369 89.0173C78.426 88.839 78.7271 88.6686 79.0358 88.5715C80.235 88.2143 81.4649 88.1498 82.6939 88.0761C84.5743 87.9709 86.461 88.0314 88.3555 88.2206C89.7017 88.3565 91.0437 88.6129 92.3813 89.1472C92.6624 89.2656 92.9408 89.412 93.2202 89.5675C93.3099 89.6228 93.3852 89.7536 93.5948 89.9904Z" fill="#202124"/>
<path d="M81.9071 16.1439C82.1352 16.6016 82.4642 17.0284 82.5854 17.4968C83.1368 19.8774 83.7487 22.2395 84.1527 24.6432C85.444 32.4014 85.9057 40.2593 86.5411 48.1082C87.8364 63.8863 87.7241 79.6771 87.105 95.4691C86.997 98.0733 86.903 100.651 86.8818 103.251C86.8805 104.833 87.0589 106.427 87.1594 108.198C86.7972 108.023 86.3587 107.96 86.2244 107.737C85.8884 107.071 85.5339 106.344 85.446 105.624C85.199 103.589 84.966 101.529 84.9532 99.4673C84.8582 92.3762 84.8703 85.2744 84.8359 78.1648C84.7843 66.094 84.1451 54.0489 83.4657 42.0162C83.0893 35.2309 82.6726 28.458 82.2296 21.6711C82.1107 19.8395 81.8243 18.0372 81.5984 16.2163C81.7256 16.1994 81.8063 16.1748 81.9071 16.1439Z" fill="#202124"/>
<path fill-rule="evenodd" clip-rule="evenodd" d="M141 33.3069H146.666C147.48 33.3069 148.139 33.9665 148.139 34.7802V46.1135C148.139 46.9272 147.48 47.5869 146.666 47.5869H141V33.3069Z" fill="#FAE041"/>
<path fill-rule="evenodd" clip-rule="evenodd" d="M141 82.1533H146.666C147.48 82.1533 148.139 82.813 148.139 83.6267V94.96C148.139 95.7737 147.48 96.4333 146.666 96.4333H141V82.1533Z" fill="#FAE041"/>
<path fill-rule="evenodd" clip-rule="evenodd" d="M29.9619 96.2371L24.303 96.5336C23.4904 96.5762 22.7972 95.952 22.7546 95.1394L22.1614 83.8217C22.1188 83.0091 22.7431 82.3158 23.5556 82.2733L29.2146 81.9767L29.9619 96.2371Z" fill="#FAE041"/>
<path fill-rule="evenodd" clip-rule="evenodd" d="M141 50.1934H146.666C147.48 50.1934 148.139 50.853 148.139 51.6667V63C148.139 63.8137 147.48 64.4733 146.666 64.4733H141V50.1934Z" fill="#FAE041"/>
<path d="M146.666 33.3069C147.48 33.3069 148.139 33.9665 148.139 34.7802V46.1135C148.139 46.9272 147.48 47.5869 146.666 47.5869H141V33.3069H146.666ZM146.326 35.1202H142.813V45.7735H146.326V35.1202Z" fill="#202124"/>
<path d="M146.666 82.1533C147.48 82.1533 148.139 82.813 148.139 83.6267V94.96C148.139 95.7737 147.48 96.4333 146.666 96.4333H141V82.1533H146.666ZM146.326 83.9667H142.813V94.62H146.326V83.9667Z" fill="#202124"/>
<path d="M146.666 50.1934C147.48 50.1934 148.139 50.853 148.139 51.6667V63C148.139 63.8137 147.48 64.4733 146.666 64.4733H141V50.1934H146.666ZM146.326 52.0067H142.813V62.66H146.326V52.0067Z" fill="#202124"/>
<path d="M24.303 96.5336C23.4904 96.5762 22.7972 95.952 22.7546 95.1394L22.1614 83.8217C22.1188 83.0091 22.7431 82.3158 23.5556 82.2733L29.2146 81.9767L29.9619 96.2371L24.303 96.5336ZM24.5477 94.705L28.0563 94.5211L27.4987 83.8824L23.9902 84.0663L24.5477 94.705Z" fill="#202124"/>
<path fill-rule="evenodd" clip-rule="evenodd" d="M42.9097 18.8567V13.19C42.9097 12.3763 43.5693 11.7167 44.383 11.7167H55.7164C56.5301 11.7167 57.1897 12.3763 57.1897 13.19V18.8567H42.9097Z" fill="#FAE041"/>
<path d="M42.9097 13.19C42.9097 12.3763 43.5693 11.7167 44.383 11.7167H55.7164C56.5301 11.7167 57.1897 12.3763 57.1897 13.19V18.8567H42.9097V13.19ZM44.723 13.5301V17.0435H55.3764V13.5301H44.723Z" fill="#202124"/>
<path d="M95.0064 36.3667C94.2956 36.5105 94.0374 37.1376 94.2851 37.8043C94.3705 38.0259 94.5989 38.1677 94.7373 38.0008C94.9826 37.6859 95.2163 37.7492 95.4997 37.8552C96.7986 38.3486 98.1349 38.6341 99.4765 38.841C101.181 39.112 102.894 39.3809 104.597 39.6413C112.619 40.8675 120.633 42.2169 128.681 43.216C129.84 43.3579 131.005 43.4764 132.169 43.595C132.503 43.6334 132.846 43.6252 133.176 43.5871C133.261 43.577 133.328 43.3948 133.407 43.287C133.336 43.2164 133.276 43.1097 133.205 43.0944C132.572 42.954 131.938 42.8136 131.3 42.6966C127.685 41.996 124.078 41.2273 120.449 40.6073C114.787 39.6439 109.106 38.7951 103.44 37.8656C100.974 37.464 98.512 36.9731 96.0479 36.5269C95.6582 36.4583 95.2635 36.4131 95.0064 36.3667Z" fill="white"/>
<path d="M96.7998 46.878C97.0394 46.9856 97.1467 47.0705 97.2608 47.0865C98.8757 47.3052 100.489 47.5693 102.111 47.7189C105.912 48.0675 109.715 47.9108 113.507 47.7346C115.959 47.6288 118.41 47.456 120.863 47.2941C122.668 47.1729 124.479 47.0388 126.276 46.8636C127.132 46.7811 127.978 46.5668 128.831 46.4065C128.965 46.3837 129.149 46.3483 129.088 45.9937C128.775 45.9159 128.444 45.8315 128.108 45.7708C126.436 45.4545 124.75 45.3324 123.063 45.3227C118.492 45.2926 113.93 45.552 109.363 45.8912C106.208 46.1302 103.055 46.324 99.897 46.1375C99.2548 46.0985 98.609 46.1501 97.9714 46.1995C97.5873 46.2184 97.201 46.3388 96.7998 46.878Z" fill="white"/>
<path d="M132.613 33.4938C132.605 33.4398 132.597 33.3858 132.589 33.3317C131.851 33.3503 131.118 33.4012 130.38 33.3637C127.646 33.2257 124.917 33.0641 122.188 32.9024C117.345 32.6029 112.499 32.2817 107.667 31.6542C104.822 31.2867 101.991 30.9042 99.1397 30.5604C98.3159 30.4662 97.4801 30.4646 96.6558 30.4825C96.3639 30.4891 96.0582 30.6337 95.7774 30.772C95.681 30.8188 95.6369 31.043 95.5532 31.2323C96.2661 31.2761 96.9113 31.2699 97.5444 31.3564C98.5819 31.4975 99.611 31.6968 100.648 31.894C106.94 33.0713 113.261 33.9834 119.62 34.1684C122.779 34.2662 125.943 34.4525 129.109 34.2007C130.088 34.1213 131.059 33.9317 132.035 33.7746C132.236 33.735 132.429 33.5853 132.613 33.4938Z" fill="white"/>
<path d="M94.6242 37.6135C94.8809 37.6323 95.2793 37.6618 95.6798 37.7018C98.1606 37.9844 100.641 38.3119 103.122 38.5497C108.823 39.1026 114.533 39.5631 120.234 40.1608C123.885 40.5398 127.522 41.0692 131.163 41.5299C131.808 41.6151 132.445 41.703 133.084 41.8013C133.155 41.812 133.221 41.9255 133.293 41.981C133.219 42.0944 133.159 42.2817 133.075 42.2975C132.736 42.3498 132.402 42.3785 132.069 42.3728C130.902 42.3424 129.734 42.3015 128.567 42.2262C120.484 41.763 112.419 40.9461 104.352 40.2532C102.631 40.1087 100.918 39.9616 99.2014 39.7933C97.85 39.6651 96.5028 39.4682 95.1865 39.0709C94.899 38.9835 94.6628 38.9357 94.4307 39.2679C94.3012 39.4551 94.0671 39.3282 93.9707 39.1011C93.6874 38.4516 93.9197 37.8053 94.6242 37.6135Z" fill="#202124"/>
<path d="M96.7998 45.9027C97.2231 45.4102 97.615 45.3294 98.0067 45.3234C98.6455 45.3159 99.2939 45.3174 99.9325 45.3847C103.079 45.762 106.236 45.7739 109.397 45.7425C113.964 45.705 118.539 45.741 123.103 46.0568C124.788 46.1721 126.466 46.3847 128.124 46.8038C128.448 46.8847 128.775 46.9865 129.092 47.0793C129.139 47.4236 128.953 47.4356 128.819 47.4596C127.96 47.5599 127.107 47.7126 126.248 47.738C124.438 47.7949 122.631 47.8084 120.823 47.8114C118.367 47.8129 115.912 47.8249 113.459 47.7725C109.655 47.6947 105.851 47.6169 102.077 47.042C100.464 46.7965 98.8636 46.4417 97.2599 46.1303C97.1454 46.0974 97.0346 46.021 96.7998 45.9027Z" fill="#202124"/>
<path d="M132.613 33.5086C132.42 33.6015 132.236 33.748 132.043 33.7851C131.067 33.9404 130.096 34.1279 129.117 34.206C125.958 34.4513 122.794 34.2635 119.627 34.1658C113.258 33.9786 106.943 33.0649 100.65 31.8898C99.612 31.6929 98.5843 31.5048 97.5448 31.3529C96.9115 31.2665 96.2663 31.2721 95.5532 31.228C95.6385 31.0506 95.6824 30.828 95.7772 30.7708C96.058 30.6337 96.3637 30.4903 96.6557 30.484C97.4801 30.4669 98.3144 30.4584 99.1401 30.5635C101.982 30.8989 104.823 31.29 107.67 31.6575C112.503 32.2851 117.35 32.6084 122.194 32.9101C124.925 33.0838 127.653 33.236 130.388 33.3754C131.126 33.4133 131.859 33.3633 132.597 33.3456C132.599 33.412 132.605 33.455 132.613 33.5086Z" fill="#202124"/>
<rect x="96.7979" y="102.992" width="7" height="8.3342" transform="rotate(35.1515 96.7979 102.992)" fill="white"/>
<path d="M126.593 76.2115C127.229 74.882 127.665 73.4873 128.077 72.0764C128.171 71.7047 128.136 71.4203 127.874 71.1386C127.583 70.8208 127.277 70.5269 126.918 70.2848C126.299 69.8851 125.696 69.7738 125.037 70.2345C124.562 70.5762 124.037 70.8656 123.538 71.1911C123.426 71.2546 123.301 71.362 123.185 71.4054C122.876 71.5278 122.173 71.3318 122.126 71.0914C122.052 70.7107 122.389 70.6245 122.61 70.4776C123.96 69.5082 125.302 68.4987 126.863 67.8627C127.46 67.6217 128.077 67.585 128.697 67.6725C129.449 67.7966 129.918 68.2876 129.962 69.0484C129.976 69.4407 129.95 69.8409 129.88 70.2288C129.52 72.4405 128.808 74.5543 127.896 76.6029C127.507 77.4894 126.835 78.2023 126.258 78.9798C125.089 80.5586 123.892 82.1013 122.663 83.5878C121.906 84.5043 121.069 85.3324 120.315 86.269C117.797 89.3577 115.255 92.4302 112.641 95.4543C109.825 98.7255 107.169 102.174 104.529 105.598C104.48 105.67 102.175 108.676 102.025 108.871C101.433 109.672 100.86 110.47 100.383 111.332C100.04 111.918 99.6724 112.489 99.2572 113.027C98.9389 113.422 98.526 113.543 98.2349 113.33C97.8521 113.071 97.9183 112.663 98.0842 112.34C98.5856 111.39 99.0871 110.44 99.6603 109.539C100.104 108.828 100.521 108.082 101.184 107.537C101.453 107.319 101.588 106.939 101.797 106.628C103.47 104.535 105.015 102.322 106.735 100.262C108.689 97.9068 110.523 95.4709 112.553 93.1842C114.409 91.0766 116.17 88.9045 117.879 86.6801C118.022 86.5081 118.203 86.3409 118.285 86.1102C118.309 86.0416 121.403 83.0224 121.477 82.9515C121.552 82.8795 121.614 82.7941 121.683 82.7178C123.182 80.9085 124.657 79.0832 126.152 77.2539C126.354 76.9027 126.543 76.5955 126.593 76.2115Z" fill="#202124"/>
<path d="M101.931 106.624C101.168 105.251 99.8481 104.735 98.5343 104.205L98.3654 104.137C98.0842 104.022 97.8044 103.906 97.5315 103.778C97.3996 103.741 96.6405 103.265 96.5086 103.229C96.6589 103.006 97.468 102.108 97.9854 101.536L98.0485 101.466C98.2226 101.274 98.3551 101.127 98.4039 101.071C99.5441 99.7617 100.589 98.3664 101.635 96.971C103.991 93.8058 106.343 90.6215 108.696 87.4368C108.695 87.4365 108.695 87.4363 108.694 87.4361C108.705 87.423 108.716 87.4087 108.728 87.3933C108.768 87.3389 108.808 87.2848 108.848 87.2308L108.857 87.229C110.284 85.4183 117.429 76.3543 118.29 75.373C119.023 74.5444 119.736 73.7196 120.445 72.8748C120.767 72.5003 121.136 72.3662 121.625 72.3128C123.131 72.1449 124.211 72.8913 125.179 73.9093C125.807 74.5772 126.332 75.3486 126.707 76.2113C126.657 76.5953 126.467 76.9026 126.234 77.1975C124.759 79.0229 123.26 80.8321 121.765 82.6614C121.709 82.7322 120.99 83.5133 120.23 84.3143L120.134 84.4145C119.753 84.8152 119.367 85.2138 119.055 85.5238L118.979 85.5994C118.713 85.8605 118.511 86.0464 118.426 86.0972C118.348 86.3413 118.159 86.4998 118.013 86.6761C116.304 88.9005 114.543 91.0726 112.687 93.1801C110.661 95.4868 108.826 97.9227 106.869 100.258C105.148 102.318 103.603 104.531 101.931 106.624ZM105.612 95.8237C105.892 95.7692 106.045 95.5939 106.19 95.3785C106.997 94.182 107.828 93.0016 108.591 91.7928C109.116 90.963 109.589 90.0809 110.07 89.2389C110.211 89.0035 110.225 88.7514 109.998 88.546C109.751 88.3445 109.494 88.4152 109.301 88.5982C109.104 88.7613 108.959 88.9767 108.81 89.172C107.74 90.7314 106.739 92.3192 105.554 93.8179C105.337 94.0889 105.183 94.3683 105.013 94.6716C104.908 94.8792 104.847 95.099 104.87 95.3233C104.92 95.6878 105.251 95.8938 105.612 95.8237ZM103.459 98.6541C103.936 98.5406 104.85 97.4688 104.877 96.9646C104.895 96.6284 104.676 96.359 104.383 96.4575C103.658 96.6817 103.127 97.1592 102.735 97.8176C102.69 97.9094 102.714 98.0296 102.706 98.0936C102.791 98.5344 103.078 98.7281 103.459 98.6541Z" fill="#202124"/>
<path d="M104.756 95.3232C104.753 95.095 104.795 94.8791 104.92 94.6676C105.093 94.3843 105.263 94.081 105.461 93.8139C106.629 92.3391 107.647 90.7274 108.716 89.168C108.861 88.9527 109.01 88.7573 109.207 88.5943C109.404 88.4312 109.661 88.3605 109.904 88.542C110.151 88.7435 110.114 88.9795 109.976 89.2349C109.479 90.1009 109.022 90.9591 108.498 91.7888C107.715 93.0015 106.904 94.178 106.097 95.3745C105.951 95.5899 105.778 95.7691 105.518 95.8197C105.121 95.9177 104.806 95.6878 104.756 95.3232Z" fill="white"/>
<path d="M102.592 98.0933C102.604 98.0494 102.577 97.9091 102.625 97.8373C102.997 97.1828 103.544 96.6814 104.274 96.4772C104.566 96.3787 104.785 96.6481 104.767 96.9843C104.737 97.4685 103.826 98.5604 103.349 98.6739C102.965 98.7278 102.674 98.5141 102.592 98.0933Z" fill="white"/>
<path d="M99.7035 112.414C99.3286 113.124 98.6291 113.638 98.1427 114.269C97.4463 115.165 90.9458 110.849 91.7937 109.711C91.8368 109.653 93.1622 107.96 93.2066 107.91C93.9123 107.117 100.107 111.633 99.7035 112.414Z" fill="#202124"/>
<path d="M78.4809 60.0575C77.9912 59.642 77.828 59.4195 77.6055 59.3304C76.9229 59.0337 76.2107 58.7369 75.4985 58.5144C72.1006 57.4164 68.6138 56.7932 65.0824 56.3481C60.1117 55.7249 55.1262 55.3094 50.111 55.161C46.8319 55.072 43.5379 54.9681 40.2736 55.3391C39.4278 55.4281 38.5821 55.6655 37.766 55.9029C37.2912 56.0365 36.9202 56.3777 36.7422 56.8674C36.5641 57.3422 36.8905 57.7576 37.3654 57.6983C38.1666 57.6093 38.9678 57.446 39.7691 57.4609C41.4903 57.5054 43.2115 57.6389 44.9326 57.7725C48.0486 58.0247 51.1497 58.3363 54.2656 58.5886C57.3815 58.8556 60.4975 59.0337 63.5986 59.3453C68.2131 59.8053 72.8425 59.924 77.4719 60.1317C77.6648 60.1317 77.8725 60.102 78.4809 60.0575Z" fill="white"/>
<path d="M79.2525 36.881C79.2673 36.8217 79.2822 36.7475 79.297 36.6881C79.1634 36.6288 79.0151 36.5546 78.8667 36.5101C78.5106 36.4062 78.1396 36.2875 77.7835 36.1985C71.7149 34.685 65.5423 33.6316 59.3698 32.6819C55.1559 32.0439 50.9419 31.4207 46.728 30.8569C42.2321 30.2634 37.7363 29.7441 33.2404 29.2099C32.5431 29.1357 31.8457 29.1505 31.1483 29.2099C30.8515 29.2396 30.5696 29.4473 30.3174 29.6254C30.1245 29.7589 30.1987 30.2485 30.4064 30.3376C30.7032 30.4563 31.0148 30.5453 31.3264 30.5898C33.1366 30.8569 34.9616 31.1091 36.7718 31.3465C41.1045 31.9252 45.4223 32.5187 49.7549 33.0826C54.3546 33.6909 58.9544 34.2696 63.5392 34.8779C68.3467 35.5011 73.1541 36.1243 77.9764 36.7475C78.4067 36.8365 78.8222 36.8514 79.2525 36.881Z" fill="white"/>
<path d="M32.3801 48.425C33.0181 48.3211 33.6413 48.1579 34.2645 48.143C34.9025 48.1282 35.5554 48.2172 36.1934 48.3211C38.5823 48.7662 40.9563 49.2114 43.3304 49.701C47.663 50.5913 51.966 51.5854 56.3431 52.1937C60.7796 52.8021 65.2013 53.4253 69.6378 53.9446C71.7744 54.1968 73.9408 54.2265 76.0922 54.3601C76.3593 54.3749 76.6264 54.3601 76.8935 54.3452C77.1012 54.3304 77.3089 54.2859 77.8579 54.1968C73.3472 53.5737 69.1927 53.0247 65.0232 52.4312C59.6816 51.6744 54.3697 50.799 49.1171 49.612C45.7044 48.8404 42.2769 48.0837 38.8494 47.3863C37.3804 47.0896 35.8818 46.8373 34.3535 46.8967C33.8045 46.9115 33.2703 46.9857 32.8252 47.3121C32.4839 47.5792 32.2465 47.9056 32.3801 48.425Z" fill="white"/>
<path d="M75.5675 63.7794C74.9572 63.8123 74.7488 63.8343 74.5553 63.8233C69.9112 63.6698 65.2672 63.582 60.6379 63.242C57.527 63.0116 54.3863 62.869 51.2753 62.6826C48.1495 62.4851 45.0386 62.2657 41.9127 62.0793C40.1861 61.9696 38.4595 61.8818 36.7328 61.8489C35.929 61.827 35.1252 61.9586 34.3215 62.0244C33.8303 62.0683 33.5177 61.7612 33.6963 61.4102C33.8749 61.0482 34.247 60.7959 34.7233 60.6972C35.542 60.5217 36.3905 60.3571 37.2389 60.2804C40.5285 60.0061 43.818 60.0829 47.1076 60.1487C52.1387 60.2584 57.14 60.5656 62.1264 61.0262C65.669 61.3553 69.167 61.827 72.5756 62.6277C73.2901 62.8032 73.9897 63.0116 74.6893 63.231C74.9126 63.3078 75.0763 63.4723 75.5675 63.7794Z" fill="#202124"/>
<path d="M73.0055 33.9057C72.6311 33.9283 72.2711 33.9638 71.8935 33.9567C67.6789 33.9166 63.4644 33.8764 59.237 33.8381C55.2049 33.8025 51.1728 33.7669 47.1518 33.7146C43.3533 33.6762 39.5644 33.6064 35.7643 33.5532C34.177 33.5353 32.5754 33.5044 30.9849 33.4568C30.7113 33.4501 30.4314 33.384 30.1642 33.316C29.977 33.267 29.8589 32.771 30.011 32.6139C30.2095 32.405 30.4417 32.1462 30.6833 32.0971C31.2787 31.9531 31.8899 31.8369 32.4884 31.8431C36.4229 31.8171 40.3591 31.8059 44.3016 31.8542C47.9977 31.9069 51.6986 32.0043 55.4043 32.1462C60.8316 32.3473 66.27 32.6524 71.6682 33.4305C71.9978 33.4746 72.3161 33.5354 72.6361 33.6109C72.7689 33.6375 72.8921 33.6955 73.0265 33.7369C73.0168 33.7684 73.0104 33.8297 73.0055 33.9057Z" fill="#202124"/>
<path d="M33.7671 72.1895C33.6039 71.6969 33.7012 71.3555 33.8838 71.0747C34.1196 70.7115 34.4312 70.5881 34.7704 70.5195C35.7118 70.3111 36.6714 70.3962 37.6424 70.5535C39.8842 70.9096 42.1306 71.2945 44.3723 71.7098C47.8319 72.3471 51.271 72.6764 54.701 72.8887C57.3745 73.0431 60.0456 73.183 62.9567 73.3441C62.629 73.4849 62.5066 73.5487 62.3797 73.5836C62.2159 73.6244 62.052 73.6652 61.8836 73.677C60.5248 73.7589 59.1727 73.9434 57.8048 73.9082C54.9651 73.8395 52.1094 73.6696 49.2653 73.5126C46.4488 73.3513 43.6097 72.8084 40.7867 72.3666C39.2345 72.1236 37.6799 71.9254 36.1345 71.7257C35.7194 71.6729 35.2995 71.6505 34.9073 71.7423C34.5104 71.8051 34.148 72.0255 33.7671 72.1895Z" fill="#202124"/>
<path d="M71.4059 42.3869C70.5348 42.4 69.6494 42.3745 68.7926 42.4263C62.6462 42.77 56.5142 43.1524 50.3536 43.4574C45.5723 43.7302 40.6232 43.4457 35.4526 42.4934C34.4192 42.3117 33.368 42.0474 32.3168 41.7831C32.19 41.7536 31.9704 41.4041 31.5625 40.9637C32.8205 40.5342 34.1404 40.759 35.4208 40.9118C40.292 41.5079 45.0453 41.7507 49.6915 41.6349C55.4339 41.4877 61.1907 41.3791 66.9584 41.2653C68.1126 41.2513 69.2989 41.3586 70.5104 41.4993C70.728 41.5303 71.0813 41.9973 71.363 42.2709L71.4059 42.3869Z" fill="#202124"/>
</svg>
